<svg xmlns="http://www.w3.org/2000/svg" xmlns:xlink="http://www.w3.org/1999/xlink" viewBox="0,0,256,256" width="24px" height="24px"><g fill="#ffffff" fill-rule="nonzero" stroke="none" stroke-width="1" stroke-linecap="butt" stroke-linejoin="miter" stroke-miterlimit="10" stroke-dasharray="" stroke-dashoffset="0" font-family="none" font-weight="none" font-size="none" text-anchor="none" style="mix-blend-mode: normal"><g transform="scale(10.66667,10.66667)"><path d="M4.25,3c-0.45079,-0.00638 -0.8701,0.23047 -1.09736,0.61984c-0.22726,0.38937 -0.22726,0.87095 0,1.26032c0.22726,0.38937 0.64656,0.62622 1.09736,0.61984h15.5c0.45079,0.00638 0.8701,-0.23047 1.09736,-0.61984c0.22726,-0.38937 0.22726,-0.87095 0,-1.26032c-0.22726,-0.38937 -0.64656,-0.62622 -1.09736,-0.61984zM4.25,11c-0.45079,-0.00638 -0.8701,0.23047 -1.09736,0.61984c-0.22726,0.38937 -0.22726,0.87095 0,1.26032c0.22726,0.38937 0.64656,0.62622 1.09736,0.61984h15.5c0.45079,0.00638 0.8701,-0.23047 1.09736,-0.61984c0.22726,-0.38937 0.22726,-0.87095 0,-1.26032c-0.22726,-0.38937 -0.64656,-0.62622 -1.09736,-0.61984zM4.25,18.5c-0.45079,-0.00638 -0.8701,0.23047 -1.09736,0.61984c-0.22726,0.38937 -0.22726,0.87095 0,1.26032c0.22726,0.38937 0.64656,0.62622 1.09736,0.61984h15.5c0.45079,0.00638 0.8701,-0.23047 1.09736,-0.61984c0.22726,-0.38937 0.22726,-0.87095 0,-1.26032c-0.22726,-0.38937 -0.64656,-0.62622 -1.09736,-0.61984z"></path></g></g></svg>